<?xml version="1.0" encoding="UTF-8" standalone="no"?>
<!DOCTYPE svg PUBLIC "-//W3C//DTD SVG 1.1//EN" "http://www.w3.org/Graphics/SVG/1.1/DTD/svg11.dtd">
<svg width="100%" height="100%" viewBox="0 0 32 32" version="1.1" xmlns="http://www.w3.org/2000/svg" xmlns:xlink="http://www.w3.org/1999/xlink" xml:space="preserve" xmlns:serif="http://www.serif.com/" style="fill-rule:evenodd;clip-rule:evenodd;stroke-linecap:round;stroke-linejoin:round;stroke-miterlimit:1.5;">
    <g transform="matrix(1,0,0,1,-0.5,-0.5)">
        <circle cx="9" cy="9" r="7" style="fill:rgb(255,233,0);stroke:black;stroke-width:0.05px;"/>
    </g>
    <g transform="matrix(1,0,0,1,-0.5,14.5)">
        <circle cx="9" cy="9" r="7" style="fill:rgb(0,170,218);stroke:black;stroke-width:0.05px;"/>
    </g>
    <g transform="matrix(1,0,0,1,14.5,-0.5)">
        <circle cx="9" cy="9" r="7" style="fill:rgb(255,114,118);stroke:black;stroke-width:0.05px;"/>
    </g>
    <g transform="matrix(1,0,0,1,14.5,14.5)">
        <circle cx="9" cy="9" r="7" style="fill:rgb(68,214,44);stroke:black;stroke-width:0.05px;"/>
    </g>
    <g transform="matrix(1.33333,0,0,1.33333,-2.66667,-1.33333)">
        <circle cx="6.5" cy="5.5" r="1.5" style="fill:rgb(235,235,235);stroke:black;stroke-width:0.04px;"/>
    </g>
    <g transform="matrix(1.33333,0,0,1.33333,-2.66667,13.6667)">
        <circle cx="6.5" cy="5.5" r="1.5" style="fill:rgb(235,235,235);stroke:black;stroke-width:0.04px;"/>
    </g>
    <g transform="matrix(1.33333,0,0,1.33333,12.3333,-1.33333)">
        <circle cx="6.5" cy="5.5" r="1.5" style="fill:rgb(235,235,235);stroke:black;stroke-width:0.04px;"/>
    </g>
    <g transform="matrix(1.33333,0,0,1.33333,12.3333,13.6667)">
        <circle cx="6.5" cy="5.5" r="1.5" style="fill:rgb(235,235,235);stroke:black;stroke-width:0.04px;"/>
    </g>
</svg>
